# xmcd
#
# Track frame offsets: 
#        182
#        23475
#        36530
#        55547
#        91035
#        112105
#        140787
#        159075
#        196435
#
# Disc length: 3047 seconds
#
# Revision: 1
# Processed by: cddbd v1.5.2PL0 Copyright (c) Steve Scherf et al.
# Submitted via: ExactAudioCopy v0.99pb3
#
DISCID=6f0be509
DTITLE=Various Artist - Skazani Na Blues-a
DYEAR=1994
DGENRE=Blues
TTITLE0=Irek Dudek - Dudi Boogie
TTITLE1=Monika Adamowska - To byl facet
TTITLE2=Kasa Chorych - Blues Corek Naszych
TTITLE3=Leszek Winder - Blues dla Dzidka
TTITLE4=Elzbieta Mielczarek - Poczekalnia PKP
TTITLE5=Tadeusz Nalepa - Co sie stalo kwiatom
TTITLE6=Martyna Jakubowicz - Blues o zuzytych butach i szczesliwym kon
TTITLE6=cu szerokiej drogi
TTITLE7=Dzem - Modlitwa III
TTITLE8=Krzak - Kawa Blues
EXTD=YEAR: 1994
EXTT0=
EXTT1=
EXTT2=
EXTT3=
EXTT4=
EXTT5=
EXTT6=
EXTT7=
EXTT8=
PLAYORDER=
